<mxfile host="app.diagrams.net" modified="2024-01-07T23:31:47.284Z" agent="Mozilla/5.0 (Windows NT 10.0; Win64; x64) AppleWebKit/537.36 (KHTML, like Gecko) Chrome/120.0.0.0 Safari/537.36" etag="RhPYdbTZ4598Wskidj0r" version="22.1.17" type="device">
  <diagram name="Page-1" id="hS6oeiNe7RKQnzl6EBGU">
    <mxGraphModel dx="1434" dy="738" grid="1" gridSize="10" guides="1" tooltips="1" connect="1" arrows="1" fold="1" page="1" pageScale="1" pageWidth="1100" pageHeight="850" math="0" shadow="0">
      <root>
        <mxCell id="0" />
        <mxCell id="1" parent="0" />
        <mxCell id="RjZcpQp4Ku57yIs7D2Vs-1" value="" style="shape=datastore;whiteSpace=wrap;html=1;" vertex="1" parent="1">
          <mxGeometry x="610" y="220" width="80" height="100" as="geometry" />
        </mxCell>
        <mxCell id="RjZcpQp4Ku57yIs7D2Vs-8" style="edgeStyle=orthogonalEdgeStyle;rounded=0;orthogonalLoop=1;jettySize=auto;html=1;" edge="1" parent="1" source="RjZcpQp4Ku57yIs7D2Vs-2">
          <mxGeometry relative="1" as="geometry">
            <mxPoint x="420" y="250" as="targetPoint" />
          </mxGeometry>
        </mxCell>
        <mxCell id="RjZcpQp4Ku57yIs7D2Vs-2" value="" style="shape=image;verticalLabelPosition=bottom;labelBackgroundColor=default;verticalAlign=top;aspect=fixed;imageAspect=0;image=data:image/jpeg,/9j/4AAQSkZJRgABAQAAAQABAAD/2wCEAAkGBwgHBgkIBwgKCgkLDRYPDQwMDRsUFRAWIB0iIiAdHx8kKDQsJCYxJx8fLT0tMTU3Ojo6Iys/RD84QzQ5OjcBCgoKDQwNGg8PGjclHyU3Nzc3Nzc3Nzc3Nzc3Nzc3Nzc3Nzc3Nzc3Nzc3Nzc3Nzc3Nzc3Nzc3Nzc3Nzc3Nzc3N//AABEIAMAAzAMBEQACEQEDEQH/xAAcAAEAAgIDAQAAAAAAAAAAAAAAAQUCBwMEBgj/xAA9EAACAQICBQcJCAIDAQAAAAAAAQIDBAURBiExQVEHEhNSYXGBFSIyNDVykZKxFBcjM0JUVaFi0SVTwUX/xAAaAQEAAgMBAAAAAAAAAAAAAAAAAQMCBAUG/8QAKxEBAAEDAgUDBAMBAQAAAAAAAAECAxESMQQTIUFRFTIzFFKR8AVDYYEj/9oADAMBAAIRAxEAPwDeIAAAAAYyA1PpTpHd4ne16VGtOnZQk4Qp05Nc/LU28tpVVOXm+L4qu7XMROKY/erzxi0wAAAAAAAABaWvq9PuCud3KGIAAAAAAAnk/wDQTCztsfxS1oqlRus4LZ0i5zXZnwJ1TDat8dxNFOKa+n+tnlz1YAAAAMZ7H3BE7NDy9KXvP6lDyM7ygIAAAAAAAAAFpa+r0+4K53coYgAAAAAAAADcRe9sAAAADGex9wROzQ79KXeyh5Gd5QEAAAAAAAAAC0tfV6fcFc7uUMQAAAAAAAABuIve2AAAABjPY+4InZod+lLvZQ8jO8oCAAAAAAAAABaWvq9PuCud3KGIAAAAAAAAA3EXvbAAAAAxnsYRLQspwUpectrKHkpjrKOkh10EYOkh10DB0kOugYOkh10DB0kOugYOkh10DCVOLeSYMJCAC0tfV6fcFc7uUMQAAAAAAAAB63SjT2jhF1OysaMbq5hqqNyyhB8O1llVWHp+I46Lc6aYzKgfKbiX7C1+eRjzGv6jc+39/CPvOxP9hbfNIcyUeo3Pt/fwfedif7C2+aQ5kp9Rufb+/g+87E/2Nt80hzJPUbn2/v4RLlOxLY7G1Wf+TGuWM/yVfiHiXXbbay1vMxy5+6Oml2fAZMHTS7PgMmDppdgyYR08uCGTA68luXwGTDGVxVyzhGL7GMsqaYmerK1ulcZxy5tRfpMi5bmnqsKWbhr3GLXmOrMhHVaWnq1PVuJVTu5dYQawGsBrAawGsBrAawGsDy1epKtWq1akm51JynLtbeb/ALIb0zmcy4wgAgCAASgABAAAwIIBknZT1EliUskl5xPZtx1tLGklkyGtMM8iELez9WpkterdzEoAAAAAAAAAFWyF6AAEMAEoAAQAAgAQAEMk7Kmt7TfvIns3I+JY0djIa0syGK2s/VqfcS16t3MSgAAAAAAAAAVTIXgEAWWjtnZ4hi1Czv7idvTrvmQqQy9N7E8+Oz4ExjPVdYppquRTVOGwPuvsH/8ARuvliWcuHS9Nt+ZeS010Vejla3dGpOvbV00pzWTU1u1GFVOGnxXDcmYxtLzCeazMWoyhCVSpCnTi5znJRjFLW29SSCYjM4hsy35L7Z29N3GIXEazinUUIxyT3pFnLh1Y/jqO9U5UGmmi2GaOWtJ072vWu60vMpyUUubvk8iKqYhrcTw1FmnpPWXjitpABg7Kmr7TfvIy7NyPiWNHYyGtUzIYraz9Wp9xLXq3cxKAAAAAAAAABVMhegJQAexgbt0Dx/y5gsHWnnd0MqdbjJ7peJdTOYd/hb/Nt5neHc0rwiGOYJc2TyVRx51GTXozWz/XcyaozDLiLUXbc0tCzjKnOUKsXGcG4zi9qa2o13n5jE4e65LcBV3iEsWuIZ0rV82imttR7/BFluMzlv8AAWdVXMnaG0ry6o2VrWubmoqdGlBznJ7ki3Z16qopjMtCaR4xWx3Fq19WzUZPm0oP9EFsXfxNeZzLz1+7N2ualYyFKM8gIbJT2VVT2k/eRPZtx8Syo7GQ1qmZDFbWfq1PuJa9W7mJQAAAAAAAAAKlkNhAEAALjRLG54BjVK6zf2ebULiPGD3962k01Ylfw96bVzPZvajUhXpRq0pKUJpSjJb09aZfu9BE94ar5RtHKsdIratYQX/J1FTSy1Krs+GWvwZVXHVyON4eeZE092ycFwylhGG29jb+hSjk31nvfiyyIxDqW6It0xTDX/KppCqko4JbT82LU7rLjtjH6P4FddXZzuPv/wBcf9a5b1FbmIzAgJQwlWVPaT95GXZtR8Syo7GQ1qmZDFbWfq1PuJa9W7mJQAAAAAAAAAKdkNgAAQQI3gbT5LMf+0WssGuJ/i0FzqGf6ob14P6ltFXZ1+AvZp5fh72dGFR05Tim4S50W1seTWfwbXiWOhhU6V43TwDBq95LKVXLmUYP9c3s8N77ERMxEKr93lW5qloavWqXFWpWrzc6tSTnOb2tvaa/d5+qdUzM7y48wgBhDYSxbArZv/kX7xn2bX9azpbGYtaWYYrezT+zQ1PZwEKKvc5snwJYmT4AMnwAZPgAyfABk+ADJ8AGT4AMnwApmQ2EEAAAgDbHJjo59hsvK13DK4uY/hJ/op8fHV/RdRTjq7PBcPop1zvL21S5pUa1KhUqRjVq59HFvXLJZvIzb0zETh0NJcGo49hNayrZKUlzqU8tcJrYyJjMYV3rVN2maZaBuratZ3Va2uoOnWozcJxe5ooefqpmmrTLibIQgJQBDAprn2k/eLI2dG38buU95CuWWYQ7lFLoo6ls4GM7tS57meS4IhgZLggGS4IBkuCAZLggGS4IBkuCAZLggGS4IDkYQAQAYHo9BdHvL+LxdeOdlbSU63+T3Q8d/YZU05lt8JYm9X/kN3LKMcormpakluL3c2aT0s0prX2lVPELCp+FY1MrVp6pZPW+6WzuKZqzLiX+Imq9qp2huHB8Ro4rhtve27/DrQUkuq96+JbE5jLs264rpiqHguVjR5OnHHbWOThlC6S3x2KXg9TMK47tDjrGY5kNYFTmIbAhsCG9QFRce0Ze8WRs6Nv44dunvIVswh3KP5Ue4x7tS57nIQwAAAAAAAAAGTCBgRmByWtCteXVG2toOpXrTUKcFvb1DGWVNM1TphvvRjBaOBYRRsqWUpJc6rPrze1mxTGIegs2ot0aYUfKbj3knBXZ28+bdXicE1thD9T/APPExrnEKeMvcujEby0xmti1LZlwKXFbB5J8eVC9ngtxP8O4bqW+b2TS86Piln4MsoqxOHR4C9j/AM5bUr0KVehUo1qanSqQcJxeySe1FrqVRFUYloDS3A56P4zVs3m6EvPt59aD2eK2FFUYlwr9mbVenspmYqUNgQwhUV/aL94sjZ0bfxu5T3kK2YQ7lH8qPcY92pc9zkIYAAAAAAAAADJhDHMJRnxA9FoXjmHaP3lW+vbStcXGXMouDWVNPa9e/cZUzENrhrtu1OqqMvZPlVw7+Pu9X+cTPmN31C39stf6UY3Wx/GKt9UThD0aVNv0IrcVzOXPv3Zu16pVGZCpnQr1Le4pXFCbhVpTU4SW2Mk80wmJxOYbRpcq1l0MOmw656TJc/mSjlnvyLeZDqx/IUd6ZUGmumOF6S4bGjGwuaV1SkpUasnFpa9afY1n4oxqqiWvxHE0XaMRHV4ZswaSADeoCpre0H7xZGzoW/jdynvIVswh3KP5Ue4x7tS57nIQwAAAAAAAAABvMCAIbCUBKAIbAAYhKMwIzAhsJRmBDArK3tB+8WRs6FHxw7lPeQqZhDuUfyo9xj3alz3OQhgAAAAAAAAAMq9OVCvWo1ItTpzlCXY08n/aDKYmJxLizAjNAQ2BDYEMJM+wCM3wAjwYEawlDAjuCYQ8wSrKjTv208/OLI2b9Hsd2nvIVMwh3aK/Cj3GPdqXPczyfAhgZPgAyfABk+ADJ8AGT4AMnwAZPgAyfADb+lnJ7Qxm7nfWNeNrdT11FKOcKj49jLqqMu1f4OLk6onEvNvkrxT+QtflkYcuWv6fV5PuqxT+QtflkOXJ6fV5R91WKfyFp8shy5PT58n3U4r/ACFr8shy5T6fPli+SnFVm/KFrs6shy5PT6vLV8sUoxlKPMnqbW4aFP0lXlHlWj/1z/oaZPpa/KPKlHqT/oaZT9NX5PKlH/rkNMn01fk8qUupIaT6avyjynS6khpPpq/Liq4lzk40YOMmvSe4mKWdHDYnNUuG1i+lj2PNsmV1UrOGpPtMWvLMIN4DwJSeADwAeADwAeADwAeADwA+py12AAAAAYy2MD5JnQj0k/MT85/Ury52uUdBHqIZNcnQR6iGTXJ0Eeohk1ydBHqIZNcnQR6iGTXIqSWyCGTU5aUHzlqIYzPR3EkkQqykIAAAAAAAAAAAB9TlzsgAAAAiWxgfKs6MefLW/Sf1KnImrqjoY8WDUdDHiwajoY8WDUdDHiwajoY8WDUdDEGpnGKjsCJlkQgAAAAAAAAAAAAD6nLnZAAAABEvRA+Wp+nL3n9Slx53QEAAAAAAAAAAAAAAAAAAAAAPqcudkAAAAGM/RYHy5U/Mn7z+pU487sSEAAAAAAAAAAAAAAAAAAAAAPqcudkAAAAGMtYGhtOND7/BMTuK9va1a2HVZupTq0otqnm83GWWzLc9hXMTlzb1maasxs8n3mKgAAAAAAAAAAAAAAAAAABJtpRTbexJZ5hL0OHaD6SYlbK5tcNlGk3kvtEujk+3J68u0nGVtNi5VGX/2Q==;" vertex="1" parent="1">
          <mxGeometry x="280" y="190" width="53.13" height="50" as="geometry" />
        </mxCell>
        <mxCell id="RjZcpQp4Ku57yIs7D2Vs-3" value="" style="endArrow=classic;html=1;rounded=0;" edge="1" parent="1">
          <mxGeometry width="50" height="50" relative="1" as="geometry">
            <mxPoint x="420" y="256.65" as="sourcePoint" />
            <mxPoint x="580" y="256.65" as="targetPoint" />
          </mxGeometry>
        </mxCell>
        <mxCell id="RjZcpQp4Ku57yIs7D2Vs-4" value="" style="shape=image;verticalLabelPosition=bottom;labelBackgroundColor=default;verticalAlign=top;aspect=fixed;imageAspect=0;image=data:image/png,iVBORw0KGgoAAAANSUhEUgAAAcMAAABwCAMAAABVceuDAAAArlBMVEX///8WdbyCvUEAbLgAbrkAcLoAargAabcPc7s6hcPN3O1alMqiwN/I2evR5r9xthf6/Pd6ptIxf8C60OaGrtatxuLk7fXE1uqau9x8ujT0+PyIwEx3uCgAZrbL4rZ+uzjl8dvs9OT0+e+42JrA3KbW6MbX5PHs8/nD3qtttAVMjcZvoM+TxV+Ow1es0oi0y+SkznuZyGrg7tRzotCx1ZCey3GGv0iRtdmmz38AX7NKZcCxAAARqUlEQVR4nO2dCXeyOhPHwbApWqw7iPtabWt3e7//F3tBrc6EJISltn1e/ueec++5BYT8SDIzmQyKEqo+fB+5o+f5RPk/U+enbyA3zX3nfr6evwf/Skpx+Pm0rn/LTX2/Oi2r8dP3kE2V7eb0X8/O+wnd2neGSa5R77ujoANPc761a8hrl03dKv/0bWRQZ68axD7+97uzPv//+r1zk+Ay96NSoNFHvjd3BXVtU7NU9e8yXFXL4RNYR4ZDZwb/eO/I96qxXzrIf8n3Br9Z3S0huhrqjzL0dpvDK6h+MfT76O91/0n6Wgv3yNBdxx/7e9Qw9MPz/1WGnY1Jzg9wYHjjLPAhc/mO+HLqh26iSfSHVTHVs/4kwxYBD3Bg+OlTh0wTzIinfuj/JaOmQv46Q51m2H+mjym9SV9uceiI7iz+yN+jf5Dh6JE+5kF+QlReHny/9OAW/fCKijIsfdLHlCJURaoHHv6fci7+QYb39/QxzjzpVSfOex43dx39gwxnPhUqWzjjxJdd3H3LlLj6jov+gwzHdHTt2f1I7irM7xbxByWS173Vtjlf86B/kKFy76IjFs6s5LjzpHHsdyfPNY9V2yZE129zvORZ/yLDiQO9i6kfeBY3fcd/S2hr9kd5LV8s941jJKlgyBSDYTCZPZ+b/8U/mjgvz47zmahnTf2IcZRGyy0h2imSVDBkisUwAOfPD73u5fnu7BuOnxznOUks++UukU/CUc+43GDBkCkmQ6X+5jh+v+/f9aFlMn3znYcEpsrwLoewaVUrGMaIzTDQy3o2W9ODZ33uOiV5MI9348w3WDCMFZchT8OPBEbqffbgd8EwVokZBibPg7SRWh/14w8Sq2AYqxQMg3H2XdZIzR50KxjGKhXDgM2npJG6uEscbMUqGMYqJcPASJ3JGamzjEG3gmGsUjMMJru1lJGaMehWMIxVBobKIQYXb6R+lLIE3QqGscrGMJjv7h1/JjZSswXdCoaxysrwGIMTG6kvd/IJOREVDGOVnWHQ0R4d511kpK4zBN1SM/SWzXZv32rte+3u0hMcmJihV2m3trZtv+7bFdGFhVrVqi3b3mzsVnuZ/ORld1etVtu7w5PlwTAwb2KM1M8UqQAnQYZWuRMR86Ta3rZMQjRd04N/NGIYjdc2LwkgGcNlq2EGF9Yty9K14MrlPX+r1GrX/NIOgYIX0TVDv5XH2GnfNkjwbEQLFPzLVMsNKw+GgYYjR7Dc/0AneEgLMlQtg9JgEzmhU90E7WOB5zr2YWKWd8xfSMKwfVrJBGfoZrnJObo7IF8a9MAjqYZOX2MjtWlu2VJNolM3gB41E8PASH1wXN62tbqbNuiGGEZEaCzRRgbPR/Q24xfkGe4swrq2RRo15vG1y5X1M8M9YT2RBSFz1CybwsbIgeFhoZhnpE4cnKQ6nUhGw8UMTTQfeXvCbGTQ2uXo+y7LsFPmXtwymZk+DIZtjfc8JKb1m6r42U53kpVhgCowUh+ZRurNOeg2HT59+KFK7xL7jIUMLTiUdm75XfByhtGlf0GS4c4UXVy3GINhhKHgNVBVTdT8nbLBPRE9X3aGx4Xi9zHjD7O7g+n68uy7o+OujNLI9ftxFquQoVa9HNj7TxcceXnIAT17yTFsDWKua1Yi59AMewPhO0Za3FaIORPcRh4MjwvF9wwj9dmfKJN7/wvgSW5JHE8VMjSBrenJDDWhBpQRKMXwNrYbWIMIRMzQ2xDB6Yc7Y0+rimLHnXm5i3wYBhqWnI/oZqlSf04TPGySEm7nEDHEu+ersg+qY6dOhuFeYiSzTHo4hQzbS01inGD+uNeINWUuN5Ebw8NCcWQj6dR1owQPW78F9o2IoY5tOfpxQudLZ3ROHRsgEgx39EBq6aH3SV3bsqjTAEOrITNMkCrjxz1VapI4/U6ODBVl/B4YqcjVeGR0wiNEQREGEUPqxW9eOoulhc6vvd1uN6oZaT08msYz7JjodItodm+3qwaOOm5d6uWADFX6Hiw14sKGYvx65NTwFdKIYRrENC+Jm6e/5MowMFIfkZH6yO6FR3FDANjHJ1Am3eBl63SUYVcv4TWvaVMmJW7reIZldDppnJ3SwBRGfzKx0VvjjO6WZhCr0dCNyNtlRGfEMt0LLd1Qb9uVTviAq2WzhybLvBkeY3BfRuraFyAccZc2UKzNrnWBIs8b7sq2tIEdiZssqRllAGfEWIY71EgmGsA7DdzE6EQmQ0sz7VOI1Gtu6Lfrlf7xW3oc0kiLMsrg/eXPMNB65NyHTsVEhDAwT3kpG4li3ptgjNkz46Jb1BQovBPLEA16Gh3aRP2EoEAQg6FFrB58gboYkaVRV2+a1PnGPnJ/HWBwfQvDw0Jx/0Z5ECLkb+FPxLBiciNWNmxqNJjGMWzDv5OoK48bGf4lylCPWC0dPJ4a+Pq0w6SVGW/oFRgGfv29M+LZM+fRlJPYn9f6IWoNCzZ1HEPYhgxHXllCo5XAcZxmaJnb6FpVE7ktVAB4i0dqwmyAqzC8FK4RdUS2WZPbGnAPjlowzhrDsAv+rEUHskC3vPU7iqFFmAscyGLSUaxmiX0aTiBHiuF0sci4mXAdz5BTlyg3hh583w0wq8Uw3MAmjr8yfDswQ63MXjBuwqOwyYx+W9UiBs9REgwnz77r+h+ZUgzjZsNQbNM0v1wM2CAEOAFihivQFSIrXSe96uxjEEONd/MeNFtQFH+JDBpuTcd4huNTfMzPUL+rLjZKRYNpfgzhYApHNTFD+PuEc2V4BdiRsI/PvTE4mCJQeDY0eIkI8QzPxog/5t5FnF7ih1Le9fNjCN0o2FvEDEED02GYi0DUDXoHtfgoXiiUDwMYog6qalyTO5bh8Nz8o0gBKWkNZRi6zJJi+TGE844G/DghQ9iOGisL4CDYYYB3IMmwDcMYgGEbxRboYOxFsQw/L06BP62nkzKL8ywODJlufn4Mu2kYwpMIw7E4ClIAXVySIboBwBBZNPxuGM/wGTS/76SUTDf8dobLNAzhOGdws8/QhHhxACQZIgaAIXIcB/wsyCT90B3epNQP9kNvFaizrNRq0I2TZgj7gsHNPYMjLmhFSYYem2EFDaXRBL6zEsyHJZfxZzlJuPi8oqfpGHrL3X67aegD8yAjXOaARp40Q7hGqLWXFbZgF1cvFCQZKmyGPXTDrJXFk+Lt0ph+IqWxjG/hMj3QFAy7tw3zuETLXXaVZbjCpiHhCR518UCyMUSeBRFkEccznJz8QzfLzhcp/5AZC0rKcPlK6CzaDAxRB5PUJVKTjWEDXtQQbAqQiNNMwziN62fY94ItI55GzDOTMezYA6nEBVmG3TQMz754NoaSnoVkvHRys15kK9wl4SByFi4SMWzJpvDJMtylYHgxfTIxxCE4Uf75ldYtFIl1C/bOqQQMvYZ0i38rw/PUlYkhJCNGcyWG4/igN6f0sDzDFTPJiC1Zhm1BRhZPOTFEUzE/zKdcbw041qjxOcX7pRl6TITWKUVR17Q0vkUqhvmMpZih6MmvwDDc7v1WX8RQfOCcLc1wQxkzh/w9Q2+UbXv72trvq9sUPv4PzoeYIT+N/woMw6pShzTTJ6FpynYsFHmGVJa3bqiv1VoHWuSwT6WzS/n+IdR//xjDm49LovCHAKLP3TojyRAnD1nmNuoTV1MwRA2pXbb1ipQ45s1hCG2a64+lk1OnOtTnO//fKd82FTifkgxRtoyqsVYY0jBEcRpD5tmhstml8KeFNs0yf4aLku+HX5oZlqgtFxNeRxTFDyQZIoOGkUCopGOooESqpGX9s/mHyLcQ+Yf5MxwePxf0PIoWkaqzIQqzPOQYVuADE/ZabSqGME9CFLNkKlucBm1S0AU/kzvDr9SZEWN36NB/iI6nbn8sup4cwz1cCudkrqRiyFuwklLGeCkcWkRjQO4Mv5aZRtGPlEyct2CAdWFnHLmjmI3AcgzhMh87CTQlQ+hc6EnbJ891C17tDeUbbJqvyOgoOsd9HGpjLN6D6XIUynX999jP8skxhKtMvJSJVAw7WYyabAzRjq/oZhpwj3kz5H/G8vFcQPFlOHv8/HxbyxRAlWMIW5o37KRiiDL1SaQeg1jZGKJ1fG5epIKN53xsmv4pHZVe6LhJV/BLiiFyAQhnqa2XJhcDJw4KEiJYysZQwQw5+ckKlQmS8BbZOuzYHkVWIaYJPisMJcUQj3gchvtU/RD1BjOZZZqRoY3CFrwsbwWNQvkwVOqz+4dozfYH9hJvrBBD3qSAXXFO6lKqnCicUSNqSIYyMsQBd47HFCpp0cCUmqX91AXeB8w5CK2X8lyANDFvBXdflXBsXrYyMvTQridL46ZjcPJTc9ZL6tLsyDrj3iAsLMAZTpYwlAPTxBDDqG+J06IiFYpEysgQD6Z81wZO9IJtHRlVT59QhRhyjXu0h485a7VRmgasioJmPMZkineuDBLYplkZouhTMAiwU7176CUT2K/Z9Jy69CXedMDNlofWI2s88WzcHDAOgBgyfOkO3shp8jM9e9QIkJUhDtUEP82aJagaUgP+z2TSOsP3EdAOSzxMdi6PhNf5dLq92oRaIIbrcTifmjFcU6UpyIbpgHo9i1AFczIz7FLlqczIMmLXop7MTF3ZWKhJlnreaBkN7mau2QPzchiuPaBbYMTzqtGqkXAtB/vSVqO76nT3G7jYQ5edHdzSpq/X3A4CA5ZyfjIzpCrjhLVx0EhUKxv0kyVeXJFTKdNHn6g5YdPsrDqV9lYPuAC/t4VfR4s09t3OatWpVW2DkRMDOzR+S8IKRQbRUAW9LlVgRNXNcu+rlLe3bO43xqmj416QnWEnUmTMKLePL5BXabEqmiZeXJHSp5Pp42sbqhMcilwda6UBEiu6mdWwGlZ4JDPZDZpvXuRUVaWG7VYkrcbSiampjYZK0G/gHWbZGbJ+WTMMtaFqJj0/HCUKjqfWzV1sXFsoUWrZ4DKmtZJloEELt8HEbMDGsJntZan0jg6cj50DQ/bNiXaSJPJg5TR10sXYzmJ3k+gN8x/rS5AD3Eu4Z+LHy6501hxP3Po0aRmu4t9NZNZ8R2LbQynrFdhNfNLlsGVMoV+9wQu2rdhnYp9asgwsYpAHQ2UprEEdnmKhuLxoZ0Y6pY6xAQl6mAEsj6YQItkgVijJ6JbdyXBgTXIvB4wB5MLwUElQIK3h4aU3qa8sJFD6GBuQ4E1EUfCmoJUHoVMCLHU8UnLeEhOt99QsiWHNLINBOh+GylJQat4yQ3cGhYIFu03TqO6nr6UBVOFC1P9DVSx55ZY19dBfoXmENtevODsWqcBayxTOiuGnRrD7lg9DZVXmDeTa0RGW/aE0yhBjQ+owKylbhC7l6dHVZo9N+1UvEppHOHN6xfpogaWZVORqdRstSnz+FaLRn/zJi6GiVJlOrj74egi0yJnrYLq+k8m2kFJVx40X+mcbxtJ2pYz7SnCcvj/31dbl4z2EwtO24PbhcLOGuakyWqO9iXytJ7AjNEN/jQbDu/+ZZw0Ei0ID/SzCWXfwWvTnV8I3+ByT2cIHE+X1J9XYybR3mNLOJgY57mAihlFuNTmBwcM3kTTteKBp4abtVGpn0YC6r6p5KjJNGtt9lxd49JqtMgnDDKebCX7ErrKjIx4U/9H2vYu4s5kXvj1a+Jmv8DtfhNjoDQbPVeN9YUFei8e+W7qfTxWFu5cprZa7feu2ta82Y+JJq271eGA34bCyWtaa3cpSIuTY6bb3rUDhzXxPlJmlSrVlbzabbZrv7clr6DtP6/X83XEeP3mlgQv9ar3fnXY51WcOb1dooV+tZ1D7cDLKeygtdAXN7+BO0Gk+zmGha6ru4D0WQydT7eFCP6C5Q3n0nPLOhX6v+vTYGYFa6LfLoberjZ2M5fgLXVlTJ/KxPCe3WFuhq2jq0OtM0xwWDwtdVc4n9T9e7or58I/pgS40/JY5D6PQlTWnomt1P7onv9DvVt3HewwzJpYW+gmtfejUzyO+RqE/oCf/4ewRPjpFlOZP6tH3nxaTen08HxUR77+qRd8/Kq52UKFfrPH68elpVqxY/KD+B5QgWnvhQx9pAAAAAElFTkSuQmCC;" vertex="1" parent="1">
          <mxGeometry x="410" y="170" width="161.07" height="40" as="geometry" />
        </mxCell>
        <mxCell id="RjZcpQp4Ku57yIs7D2Vs-5" value="Integração" style="text;html=1;align=center;verticalAlign=middle;resizable=0;points=[];autosize=1;strokeColor=none;fillColor=none;" vertex="1" parent="1">
          <mxGeometry x="460" y="220" width="80" height="30" as="geometry" />
        </mxCell>
        <mxCell id="RjZcpQp4Ku57yIs7D2Vs-6" value="" style="shape=image;verticalLabelPosition=bottom;labelBackgroundColor=default;verticalAlign=top;aspect=fixed;imageAspect=0;image=data:image/png,iVBORw0KGgoAAAANSUhEUgAAARMAAAC3CAMAAAAGjUrGAAAAtFBMVEX///8AYYrkjgAAUYDkjADjhwAAVIIAXIcAXojihQD45M8AWob338kAVoMAT39ula7W4OfooUn88+t6nbTnnj7z0a378ORHfp3qqVzx9ffP2+PllCC2yNT56tv01bYja5Hs8fSguMg2dJeJqLzC0dv++/fxxprg5+0rb5NjjqnvvonrrGTtuYDyzabstHVUhaOqwM6UsMIAP3bnmjbhfQC5y9YARnnlkx/xyZ7rr2rvwZDppFGOV4P8AAAJmUlEQVR4nO2da2PiKBSGgyRAikSrrTZWTbzVamvVXmZ22v//v5YEoolGjNWpGcPzYVfDmRTeAudwIKlhaDQajUaj0Wg0Go1Go9FoNBqNRqPRaDQajUaj0Wg0Go1Go9F8l1YTQa/yce5q5IkPBxNAMGMD99xVyQ0IoPmjQwGgcHDuuuSEIWJVw3B7ABHAcOvc1ckFCwrFhw+PAeAszlubfDBkqCo/LhgGzJtP6oNhwacWhufRR7dPASEEUwa9QVX1jy6cJYNrP1zHDCLEKCEU9gs8uXgE+bGv7rg6XHoQAwInhR1CPiTe1sVqxcEAs8JOuUNIJ9tX/YpDAGoWtasMGGqnXB43ESCoqEF/n6DU/tBmBMDKT9cmH/gIRy1fNOPjyG0yQB+LOX56zPHlRx62xUuWDsB0/PM1ygGYRgtAf2NyafGFEByeoUpnp05x9HHgJKdVn2DgFHGm/WAoCltdtFHmelyUIvYURBXZE48Ap4CR/gQDRWkgSvEm2iGDika7wXK5eC6ZqgaPMeYhbf/H6pIX6pSoiocOoPWfqkteGEOm9C0DVkDn08SPyvI+AfSHqpIbWk7q6niFjwBOySlcNnOs7gcLVLwg33f2uBY+epTz8CXSg1gpypj7nuVPVSYvDChUhvAVDNhP1SUv+IgpNXEdwJTz8AUyoI7aYIILF80+rvcE02lx11OwtaCzd2RggIsV4Q/ZZjppiyUF6Sn+S2WA9u9bwIK54z7avxc6oMVa9Tho/wELF4Ii7SKPUZapoo5TttwvlhaDGax8HrcVZ2cjg9sJqBSpowzZajGjypOMISjOYYPhauwMfqkm22aBOkoLSU2GjjJYHaLidBTud/zwAyBAOdt6BKhTtxeEI/aM+UIP0J7C7oN3lKIkIaUSPFQlQLVTyjtKYWaUCm0G/2sSMqfKFXLLAbhZjJ7SZjAIZBmg7TpVdpQKAoQR1fi6GJxg8PAVDar6jnpVU3coBhTW/R+q2fmoBL1jjADvLpU9mz3uYg4pwc7FZ5jGDuvxZQ9AwbJGec4gZNGHmOJLn1fqFPZ6NMxDD9ZHIXfj1x1y8QdoPUwpED2kKbzQHsaPjHqXnbZ2PYapTKN4Tqa9nCXvKhe+6dObRA+QuhnT0ePAAf3NKuUJF2QZPUbgmVlGywvAyxiWVT0ECrPFMc/6WOCEFmapbCz3+hS/9bHo9ZaYXrpPXtPzVaXtCYOMUQ5mr5ceva1p7xw+4wliGADMEMTNenEUUbFEAABIKu3LjtkOwwGA+ueuRM7oIYCLM7NmZE4B23OM5zv4w3Zb/c4Ed7hot3IaEfUZwPS0qx13ABzEGHJ290C/6TAO7H8r09eZPT99XW9z87C2aXSnf+4SPD3Prtbltbfwn/xJ/QEVCADqn3CSHSNKQAjd9XRMy5EWhB2eKp/9ti0zFetZmow+zTQby7L+dKRJzQ4vXaf/jDYkgDinS80+YhBB0kNjF60sDn5WpFOyzNIOTKnJzN5pY9ovwqZmh193aMI7MlcFneokvu+sG7zj4GmdxkyUqfQtGrZsraKfTO2VAnHkNesmNNqjCe/LfUjoic6IVkUnkIMjraO4MG6x5/DqBm+iaZZtvt1s8fYZmJSlJCY3+n2/ohR1HmsaWO3VhLdkDk+0BhSakIoXtjjtWPcy7CZ48igsDrl5R7TXuh3ttrkWTTdL3Q2jqy8rLLGDLxk0CV744JwkhSI0wfVe2HKSMiTFyEFV73BNbq34vJGOkM38nVL0FMpllY2MmvDJ9tcpwjepScUQI2Q7T75gclSBwzV5CDWxugqTRtSVUspq1qoooyaGD04gykqTeuh/tjdUPCJn37+kiRggYWfYwj5YE8OYHO+SV5pIB7T5HMhQzsFGVk3cED/8fA5NjBNqYsxFh9jYom2Kq72kJu4r5Dhpvs+BiPMafj6LJsez1qQlPFAyUh2LaSY4jJjQJLxM0mZ5GjOTmjykmEXkW5PgUbug+Ql3XFnPMomxk00T6XdKip+fc00+Qg+TeHzGjXmjgzQRp1xH0tG+lXcGKDnXJGp1bIE5kPFarDS8vnfsyJO//9lRjGqtMN+eHjor87xrIuK2+BlMEZvAMEP8HU24KFvLu2ClY5dm0iDvmkgJ1qe7Rbwmm/4tTYzGXZAG2NSF95yS6Cu510QMlfUZTLHwk2cuv6cJb87szowNHUuu7Uw7FCX3mrgycSDLhgnv/A1fvGLU6ESUZ3JtJ9xR7jWRrjd64UY/EcUdo0mSrlzwBrnF/Gsyjre1KhxxFO0nNEHHaGLcrRe8+dfEaIYdRbzLaSLitehxxBNq8vJPaTJcf5WLQhglrn9Ck1vBTIZ4h2pSnk5Va6usbGgiUwOBEIONaCWuiX/UfLJbk1FJeCizFn7d0uRLddda6e2/2dN7ao87iE1N2iwaMCJJsH4l2t/VJPr9XoslkhU66oP6yci+vep2a433K4VRJjY1McTWBpZBLVmvfhKaHDd2rjeTiiVztZt1J0SxeWE5lmqQ6TjFTZ//GPbstlTuqpacmdjSRKSk2cdW0jquicxUopS9twyafEpf3Ai+yCDXXiUfn2Vpd1QS0oVdRuwAmC+772peGVyy6dR4r2VpuIItTWRzsdi7iG0OJDSRez60N3aTJDTplLfpPrzJmO0+LkHJ+uqKoK72R25iiIDXNEOz2yjQm3ZTbhrIxqUo3Ztf/L/HDp5tTerrjcHEJlhCE8MTVhQhmCRu9pyI6VNje2MUbQKayfKIqAPdSFHMlDvad9yA9yfLeOJD7r1xck1iO4MkvuuX1MQIdiN3I8ymO/dFuQLRb7Oze/c0UG4a/cBrxS7rU/ALeDFsPtEaZfNISVI0MXorURIvJ93QxBg+Qop36aLWxLTsl3WWafRkp6ycheFXbBx0S7vsQk1G710+G3du7aOdcfVXcIrCSex1LR2GMaYs+RAiRYHla+zKuDfxNodOhrFjW1//JfNujc/7DUtb5F3Mm4Td1ee1lXbLcOxwt/41u315Pz5qc1shSQfiLuqVymBjQ10Y7n2tLYpp0rhKoZPqFkY8togodxqj2r0QpbRpzZfYKfcUZd3nl5liG/ZsoI0h9m1u4tHbv43QJNObGPYQi97+bcZCk5O8x+Ylit5OcbPzURVryBO9vPPz3Q54n+43zQGVehqV4K+UhU78RH9haSQ5zd3+Mr9wKlF0Usi/aAcVMSw+4QnEf4ldmgSRXsU/d+3Ow+tm+BqCwHygHxfRaDQajUaj0Wg0Go1Go9FoNBqNRqPRaDQajUaj0Wg0Go1G803+B/E0roGtL2c+AAAAAElFTkSuQmCC;" vertex="1" parent="1">
          <mxGeometry x="613" y="259" width="75.14" height="50" as="geometry" />
        </mxCell>
        <mxCell id="RjZcpQp4Ku57yIs7D2Vs-9" style="edgeStyle=orthogonalEdgeStyle;rounded=0;orthogonalLoop=1;jettySize=auto;html=1;" edge="1" parent="1" source="RjZcpQp4Ku57yIs7D2Vs-7">
          <mxGeometry relative="1" as="geometry">
            <mxPoint x="420" y="260" as="targetPoint" />
          </mxGeometry>
        </mxCell>
        <mxCell id="RjZcpQp4Ku57yIs7D2Vs-7" value="" style="shape=image;verticalLabelPosition=bottom;labelBackgroundColor=default;verticalAlign=top;aspect=fixed;imageAspect=0;image=data:image/jpeg,/9j/4AAQSkZJRgABAQAAAQABAAD/2wCEAAkGBwgHBgkIBwgKCgkLDRYPDQwMDRsUFRAWIB0iIiAdHx8kKDQsJCYxJx8fLT0tMTU3Ojo6Iys/RD84QzQ5OjcBCgoKDQwNGg8PGjclHyU3Nzc3Nzc3Nzc3Nzc3Nzc3Nzc3Nzc3Nzc3Nzc3Nzc3Nzc3Nzc3Nzc3Nzc3Nzc3Nzc3N//AABEIAMAAzAMBEQACEQEDEQH/xAAcAAEAAgIDAQAAAAAAAAAAAAAAAQUCBwMEBgj/xAA9EAACAQICBQcJCAIDAQAAAAAAAQIDBAURBiExQVEHEhNSYXGBFSIyNDVykZKxFBcjM0JUVaFi0SVTwUX/xAAaAQEAAgMBAAAAAAAAAAAAAAAAAQMCBAUG/8QAKxEBAAEDAgUDBAMBAQAAAAAAAAECAxESMQQTIUFRFTIzFFKR8AVDYYEj/9oADAMBAAIRAxEAPwDeIAAAAAYyA1PpTpHd4ne16VGtOnZQk4Qp05Nc/LU28tpVVOXm+L4qu7XMROKY/erzxi0wAAAAAAAABaWvq9PuCud3KGIAAAAAAAnk/wDQTCztsfxS1oqlRus4LZ0i5zXZnwJ1TDat8dxNFOKa+n+tnlz1YAAAAMZ7H3BE7NDy9KXvP6lDyM7ygIAAAAAAAAAFpa+r0+4K53coYgAAAAAAAADcRe9sAAAADGex9wROzQ79KXeyh5Gd5QEAAAAAAAAAC0tfV6fcFc7uUMQAAAAAAAABuIve2AAAABjPY+4InZod+lLvZQ8jO8oCAAAAAAAAABaWvq9PuCud3KGIAAAAAAAAA3EXvbAAAAAxnsYRLQspwUpectrKHkpjrKOkh10EYOkh10DB0kOugYOkh10DB0kOugYOkh10DCVOLeSYMJCAC0tfV6fcFc7uUMQAAAAAAAAB63SjT2jhF1OysaMbq5hqqNyyhB8O1llVWHp+I46Lc6aYzKgfKbiX7C1+eRjzGv6jc+39/CPvOxP9hbfNIcyUeo3Pt/fwfedif7C2+aQ5kp9Rufb+/g+87E/2Nt80hzJPUbn2/v4RLlOxLY7G1Wf+TGuWM/yVfiHiXXbbay1vMxy5+6Oml2fAZMHTS7PgMmDppdgyYR08uCGTA68luXwGTDGVxVyzhGL7GMsqaYmerK1ulcZxy5tRfpMi5bmnqsKWbhr3GLXmOrMhHVaWnq1PVuJVTu5dYQawGsBrAawGsBrAawGsDy1epKtWq1akm51JynLtbeb/ALIb0zmcy4wgAgCAASgABAAAwIIBknZT1EliUskl5xPZtx1tLGklkyGtMM8iELez9WpkterdzEoAAAAAAAAAFWyF6AAEMAEoAAQAAgAQAEMk7Kmt7TfvIns3I+JY0djIa0syGK2s/VqfcS16t3MSgAAAAAAAAAVTIXgEAWWjtnZ4hi1Czv7idvTrvmQqQy9N7E8+Oz4ExjPVdYppquRTVOGwPuvsH/8ARuvliWcuHS9Nt+ZeS010Vejla3dGpOvbV00pzWTU1u1GFVOGnxXDcmYxtLzCeazMWoyhCVSpCnTi5znJRjFLW29SSCYjM4hsy35L7Z29N3GIXEazinUUIxyT3pFnLh1Y/jqO9U5UGmmi2GaOWtJ072vWu60vMpyUUubvk8iKqYhrcTw1FmnpPWXjitpABg7Kmr7TfvIy7NyPiWNHYyGtUzIYraz9Wp9xLXq3cxKAAAAAAAAABVMhegJQAexgbt0Dx/y5gsHWnnd0MqdbjJ7peJdTOYd/hb/Nt5neHc0rwiGOYJc2TyVRx51GTXozWz/XcyaozDLiLUXbc0tCzjKnOUKsXGcG4zi9qa2o13n5jE4e65LcBV3iEsWuIZ0rV82imttR7/BFluMzlv8AAWdVXMnaG0ry6o2VrWubmoqdGlBznJ7ki3Z16qopjMtCaR4xWx3Fq19WzUZPm0oP9EFsXfxNeZzLz1+7N2ualYyFKM8gIbJT2VVT2k/eRPZtx8Syo7GQ1qmZDFbWfq1PuJa9W7mJQAAAAAAAAAKlkNhAEAALjRLG54BjVK6zf2ebULiPGD3962k01Ylfw96bVzPZvajUhXpRq0pKUJpSjJb09aZfu9BE94ar5RtHKsdIratYQX/J1FTSy1Krs+GWvwZVXHVyON4eeZE092ycFwylhGG29jb+hSjk31nvfiyyIxDqW6It0xTDX/KppCqko4JbT82LU7rLjtjH6P4FddXZzuPv/wBcf9a5b1FbmIzAgJQwlWVPaT95GXZtR8Syo7GQ1qmZDFbWfq1PuJa9W7mJQAAAAAAAAAKdkNgAAQQI3gbT5LMf+0WssGuJ/i0FzqGf6ob14P6ltFXZ1+AvZp5fh72dGFR05Tim4S50W1seTWfwbXiWOhhU6V43TwDBq95LKVXLmUYP9c3s8N77ERMxEKr93lW5qloavWqXFWpWrzc6tSTnOb2tvaa/d5+qdUzM7y48wgBhDYSxbArZv/kX7xn2bX9azpbGYtaWYYrezT+zQ1PZwEKKvc5snwJYmT4AMnwAZPgAyfABk+ADJ8AGT4AMnwApmQ2EEAAAgDbHJjo59hsvK13DK4uY/hJ/op8fHV/RdRTjq7PBcPop1zvL21S5pUa1KhUqRjVq59HFvXLJZvIzb0zETh0NJcGo49hNayrZKUlzqU8tcJrYyJjMYV3rVN2maZaBuratZ3Va2uoOnWozcJxe5ooefqpmmrTLibIQgJQBDAprn2k/eLI2dG38buU95CuWWYQ7lFLoo6ls4GM7tS57meS4IhgZLggGS4IBkuCAZLggGS4IBkuCAZLggGS4IDkYQAQAYHo9BdHvL+LxdeOdlbSU63+T3Q8d/YZU05lt8JYm9X/kN3LKMcormpakluL3c2aT0s0prX2lVPELCp+FY1MrVp6pZPW+6WzuKZqzLiX+Imq9qp2huHB8Ro4rhtve27/DrQUkuq96+JbE5jLs264rpiqHguVjR5OnHHbWOThlC6S3x2KXg9TMK47tDjrGY5kNYFTmIbAhsCG9QFRce0Ze8WRs6Nv44dunvIVswh3KP5Ue4x7tS57nIQwAAAAAAAAAGTCBgRmByWtCteXVG2toOpXrTUKcFvb1DGWVNM1TphvvRjBaOBYRRsqWUpJc6rPrze1mxTGIegs2ot0aYUfKbj3knBXZ28+bdXicE1thD9T/APPExrnEKeMvcujEby0xmti1LZlwKXFbB5J8eVC9ngtxP8O4bqW+b2TS86Piln4MsoqxOHR4C9j/AM5bUr0KVehUo1qanSqQcJxeySe1FrqVRFUYloDS3A56P4zVs3m6EvPt59aD2eK2FFUYlwr9mbVenspmYqUNgQwhUV/aL94sjZ0bfxu5T3kK2YQ7lH8qPcY92pc9zkIYAAAAAAAAADJhDHMJRnxA9FoXjmHaP3lW+vbStcXGXMouDWVNPa9e/cZUzENrhrtu1OqqMvZPlVw7+Pu9X+cTPmN31C39stf6UY3Wx/GKt9UThD0aVNv0IrcVzOXPv3Zu16pVGZCpnQr1Le4pXFCbhVpTU4SW2Mk80wmJxOYbRpcq1l0MOmw656TJc/mSjlnvyLeZDqx/IUd6ZUGmumOF6S4bGjGwuaV1SkpUasnFpa9afY1n4oxqqiWvxHE0XaMRHV4ZswaSADeoCpre0H7xZGzoW/jdynvIVswh3KP5Ue4x7tS57nIQwAAAAAAAAABvMCAIbCUBKAIbAAYhKMwIzAhsJRmBDArK3tB+8WRs6FHxw7lPeQqZhDuUfyo9xj3alz3OQhgAAAAAAAAAMq9OVCvWo1ItTpzlCXY08n/aDKYmJxLizAjNAQ2BDYEMJM+wCM3wAjwYEawlDAjuCYQ8wSrKjTv208/OLI2b9Hsd2nvIVMwh3aK/Cj3GPdqXPczyfAhgZPgAyfABk+ADJ8AGT4AMnwAZPgAyfADb+lnJ7Qxm7nfWNeNrdT11FKOcKj49jLqqMu1f4OLk6onEvNvkrxT+QtflkYcuWv6fV5PuqxT+QtflkOXJ6fV5R91WKfyFp8shy5PT58n3U4r/ACFr8shy5T6fPli+SnFVm/KFrs6shy5PT6vLV8sUoxlKPMnqbW4aFP0lXlHlWj/1z/oaZPpa/KPKlHqT/oaZT9NX5PKlH/rkNMn01fk8qUupIaT6avyjynS6khpPpq/Liq4lzk40YOMmvSe4mKWdHDYnNUuG1i+lj2PNsmV1UrOGpPtMWvLMIN4DwJSeADwAeADwAeADwAeADwA+py12AAAAAYy2MD5JnQj0k/MT85/Ury52uUdBHqIZNcnQR6iGTXJ0Eeohk1ydBHqIZNcnQR6iGTXIqSWyCGTU5aUHzlqIYzPR3EkkQqykIAAAAAAAAAAAB9TlzsgAAAAiWxgfKs6MefLW/Sf1KnImrqjoY8WDUdDHiwajoY8WDUdDHiwajoY8WDUdDEGpnGKjsCJlkQgAAAAAAAAAAAAD6nLnZAAAABEvRA+Wp+nL3n9Slx53QEAAAAAAAAAAAAAAAAAAAAAPqcudkAAAAGM/RYHy5U/Mn7z+pU487sSEAAAAAAAAAAAAAAAAAAAAAPqcudkAAAAGMtYGhtOND7/BMTuK9va1a2HVZupTq0otqnm83GWWzLc9hXMTlzb1maasxs8n3mKgAAAAAAAAAAAAAAAAAABJtpRTbexJZ5hL0OHaD6SYlbK5tcNlGk3kvtEujk+3J68u0nGVtNi5VGX/2Q==;" vertex="1" parent="1">
          <mxGeometry x="280" y="290" width="53.13" height="50" as="geometry" />
        </mxCell>
        <mxCell id="RjZcpQp4Ku57yIs7D2Vs-10" value="&lt;b&gt;Desenho de solução Módulo 1&lt;/b&gt; - Processamento de excel feito pela aplicação / processos de backend e web app deve estar disponível para elementos da equipa da Gestão" style="text;html=1;align=center;verticalAlign=middle;resizable=0;points=[];autosize=1;strokeColor=none;fillColor=none;" vertex="1" parent="1">
          <mxGeometry x="40" y="60" width="950" height="30" as="geometry" />
        </mxCell>
        <mxCell id="RjZcpQp4Ku57yIs7D2Vs-11" value="excel dos cuidadores" style="text;html=1;align=center;verticalAlign=middle;resizable=0;points=[];autosize=1;strokeColor=none;fillColor=none;" vertex="1" parent="1">
          <mxGeometry x="250" y="160" width="140" height="30" as="geometry" />
        </mxCell>
        <mxCell id="RjZcpQp4Ku57yIs7D2Vs-13" style="edgeStyle=orthogonalEdgeStyle;rounded=0;orthogonalLoop=1;jettySize=auto;html=1;" edge="1" parent="1" source="RjZcpQp4Ku57yIs7D2Vs-12">
          <mxGeometry relative="1" as="geometry">
            <mxPoint x="270" y="220" as="targetPoint" />
          </mxGeometry>
        </mxCell>
        <mxCell id="RjZcpQp4Ku57yIs7D2Vs-14" style="edgeStyle=orthogonalEdgeStyle;rounded=0;orthogonalLoop=1;jettySize=auto;html=1;entryX=0;entryY=0.25;entryDx=0;entryDy=0;" edge="1" parent="1" source="RjZcpQp4Ku57yIs7D2Vs-12" target="RjZcpQp4Ku57yIs7D2Vs-7">
          <mxGeometry relative="1" as="geometry">
            <Array as="points">
              <mxPoint x="210" y="248" />
              <mxPoint x="210" y="303" />
            </Array>
          </mxGeometry>
        </mxCell>
        <mxCell id="RjZcpQp4Ku57yIs7D2Vs-12" value="Pasta com ficheiros excel" style="image;aspect=fixed;html=1;points=[];align=center;fontSize=12;image=img/lib/azure2/general/Folder_Blank.svg;" vertex="1" parent="1">
          <mxGeometry x="90" y="220" width="69" height="56.00000000000001" as="geometry" />
        </mxCell>
        <mxCell id="RjZcpQp4Ku57yIs7D2Vs-16" value="" style="verticalLabelPosition=bottom;aspect=fixed;html=1;shape=mxgraph.salesforce.web;" vertex="1" parent="1">
          <mxGeometry x="798.42" y="224.3" width="83.16" height="65.7" as="geometry" />
        </mxCell>
        <mxCell id="RjZcpQp4Ku57yIs7D2Vs-17" value="Interface de Utilizador" style="text;html=1;align=center;verticalAlign=middle;resizable=0;points=[];autosize=1;strokeColor=none;fillColor=none;" vertex="1" parent="1">
          <mxGeometry x="770" y="300" width="140" height="30" as="geometry" />
        </mxCell>
        <mxCell id="RjZcpQp4Ku57yIs7D2Vs-18" style="edgeStyle=orthogonalEdgeStyle;rounded=0;orthogonalLoop=1;jettySize=auto;html=1;" edge="1" parent="1">
          <mxGeometry relative="1" as="geometry">
            <mxPoint x="701" y="259" as="sourcePoint" />
            <mxPoint x="781" y="259" as="targetPoint" />
          </mxGeometry>
        </mxCell>
      </root>
    </mxGraphModel>
  </diagram>
</mxfile>
